<svg viewBox="0 0 264 129"><path clip-rule="evenodd" d="M253.699 77.341V121.672H255.699V82.1615C261.066 95.9199 264 110.814 264 126.364H0C0 114.162 1.80653 102.364 5.17753 91.2023L5.17752 121.672H7.17752L7.17753 85.1573C14.9741 63.5098 28.7424 44.5253 46.5978 30.0079L46.5978 121.672H48.5978L48.5978 28.4139C60.2493 19.311 73.5554 12.0755 88.018 7.18427L88.018 121.672H90.018L90.018 6.52521C102.437 2.53981 115.68 0.274025 129.438 0.0233224V121.672H131.438V0.00112029C131.625 0.000373674 131.813 0 132 0C145.524 0 158.573 1.94705 170.858 5.56432V121.672H172.858V6.17004C187.24 10.6473 200.538 17.4242 212.279 26.0475V121.672H214.279V27.5458C231.413 40.6375 245.067 57.7279 253.699 77.341Z" fill="url(#paint0_linear)" fill-rule="evenodd" opacity="0.43643"></path><path d="M64.072 37.8157C64.072 35.6065 65.8629 33.8157 68.072 33.8157H195.928C198.137 33.8157 199.928 35.6065 199.928 37.8157V123.398H64.072V37.8157Z" fill="url(#paint1_linear)"></path><rect fill="#1A73E8" height="7.1191" rx="3.55955" width="264" y="121.025"></rect><rect fill="white" height="74.7506" rx="2" width="123.991" x="70.0046" y="39.155"></rect><path d="M48.8264 121.82C48.4414 120.536 49.4023 119.245 50.742 119.245H213.301C214.641 119.245 215.601 120.536 215.217 121.82L214.709 123.512C214.455 124.358 213.676 124.938 212.793 124.938H51.2498C50.3666 124.938 49.588 124.358 49.3342 123.512L48.8264 121.82Z" fill="#8AB4F8"></path><circle cx="132" cy="77" fill="#8AB4F8" opacity="0.3" r="28"></circle><path fill="#185ABC" d="M128.25 82.25L123 77L121.25 78.75L128.25 85.75L143.25 70.75L141.5 69L128.25 82.25Z"></path><defs><linearGradient gradientUnits="userSpaceOnUse" id="paint0_linear" x1="132" x2="132" y1="0" y2="126.364"><stop stop-color="#D2E3FC" stop-opacity="0.35"></stop><stop offset="0.703125" stop-color="#D2E3FC" stop-opacity="0.5"></stop><stop offset="1" stop-color="#AECBFA"></stop></linearGradient><linearGradient gradientUnits="userSpaceOnUse" id="paint1_linear" x1="132" x2="132" y1="33.8157" y2="123.398"><stop stop-color="#D2E3FC"></stop><stop offset="0.204095" stop-color="#D2E3FC"></stop><stop offset="0.979167" stop-color="#AECBFA"></stop></linearGradient></defs></svg>