<svg width="42" height="18" viewBox="0 0 42 18" fill="none" xmlns="http://www.w3.org/2000/svg">
<path d="M5.36719 16.9766L1.06641 17C0.988281 17 0.949219 16.9609 0.949219 16.8828L0.996094 0.394531C0.996094 0.332031 1.02734 0.300781 1.08984 0.300781L5.57812 0.277344C6.46875 0.253906 7.27344 0.457031 7.99219 0.886719C8.71875 1.31641 9.29688 1.89844 9.72656 2.63281C10.1641 3.35938 10.3828 4.16406 10.3828 5.04688V11.9375C10.3828 12.8594 10.1602 13.7031 9.71484 14.4688C9.26172 15.2266 8.66016 15.832 7.91016 16.2852C7.16016 16.7305 6.3125 16.9609 5.36719 16.9766ZM5.57812 3.14844L3.90234 3.17188L3.87891 14.0469H5.36719C5.96094 14.0469 6.46094 13.8398 6.86719 13.4258C7.27344 13.0117 7.47656 12.5156 7.47656 11.9375V5.02344C7.47656 4.51562 7.28906 4.07422 6.91406 3.69922C6.53906 3.31641 6.09375 3.13281 5.57812 3.14844ZM27.4805 17.2344C26.6289 17.2344 25.8438 17.0156 25.125 16.5781C24.4141 16.1406 23.8438 15.5586 23.4141 14.832C22.9922 14.0977 22.7812 13.293 22.7812 12.418V11.3164C22.7812 11.2305 22.8203 11.1875 22.8984 11.1875H25.5938C25.6562 11.1875 25.6875 11.2305 25.6875 11.3164V12.418C25.6875 12.9414 25.8633 13.3945 26.2148 13.7773C26.5664 14.1523 26.9883 14.3398 27.4805 14.3398C27.9805 14.3398 28.4062 14.1484 28.7578 13.7656C29.1094 13.375 29.2852 12.9258 29.2852 12.418C29.2852 11.832 28.9023 11.3203 28.1367 10.8828C28.0117 10.8047 27.8477 10.7109 27.6445 10.6016C27.4492 10.4844 27.2148 10.3516 26.9414 10.2031C26.668 10.0547 26.4023 9.91016 26.1445 9.76953C25.8867 9.62109 25.6367 9.48047 25.3945 9.34766C24.5195 8.83203 23.8672 8.1875 23.4375 7.41406C23.0156 6.63281 22.8047 5.75781 22.8047 4.78906C22.8047 3.89844 23.0234 3.09375 23.4609 2.375C23.8984 1.66406 24.4688 1.10156 25.1719 0.6875C25.8828 0.265625 26.6523 0.0546875 27.4805 0.0546875C28.332 0.0546875 29.1133 0.265625 29.8242 0.6875C30.5352 1.11719 31.1016 1.6875 31.5234 2.39844C31.9531 3.10938 32.168 3.90625 32.168 4.78906V6.75781C32.168 6.82031 32.1367 6.85156 32.0742 6.85156H29.3789C29.3164 6.85156 29.2852 6.82031 29.2852 6.75781L29.2617 4.78906C29.2617 4.22656 29.0859 3.76953 28.7344 3.41797C28.3828 3.06641 27.9648 2.89062 27.4805 2.89062C26.9883 2.89062 26.5664 3.07812 26.2148 3.45312C25.8633 3.82812 25.6875 4.27344 25.6875 4.78906C25.6875 5.3125 25.7969 5.75 26.0156 6.10156C26.2422 6.45312 26.6523 6.78906 27.2461 7.10938C27.3086 7.14062 27.4531 7.21875 27.6797 7.34375C27.9062 7.46875 28.1562 7.60938 28.4297 7.76562C28.7109 7.91406 28.9648 8.05078 29.1914 8.17578C29.418 8.29297 29.5547 8.36328 29.6016 8.38672C30.3984 8.83203 31.0273 9.37891 31.4883 10.0273C31.957 10.6758 32.1914 11.4727 32.1914 12.418C32.1914 13.332 31.9805 14.1523 31.5586 14.8789C31.1289 15.6055 30.5586 16.1797 29.8477 16.6016C29.1367 17.0234 28.3477 17.2344 27.4805 17.2344ZM41.707 17H33.9492C33.8867 17 33.8555 16.9609 33.8555 16.8828L33.8789 0.417969C33.8789 0.339844 33.918 0.300781 33.9961 0.300781H36.668C36.7461 0.300781 36.7852 0.339844 36.7852 0.417969L36.7617 14.0469H41.707C41.7852 14.0469 41.8242 14.0859 41.8242 14.1641V16.8828C41.8242 16.9609 41.7852 17 41.707 17Z" fill="#CCE0FF"/>
<path d="M14.8828 17H12.4805C12.3555 17 12.293 16.9453 12.293 16.8359L12.2695 0.488281C12.2695 0.363281 12.332 0.300781 12.457 0.300781H14.625L18.6797 9.75781L18.5625 0.488281C18.5625 0.363281 18.6328 0.300781 18.7734 0.300781H21.1523C21.2461 0.300781 21.293 0.363281 21.293 0.488281L21.3164 16.8594C21.3164 16.9531 21.2773 17 21.1992 17H19.0898L14.9297 8.16406L15.1055 16.8125C15.1055 16.9375 15.0312 17 14.8828 17Z" fill="#06005c"/>
</svg>
